<?xml version="1.0" encoding="UTF-8" standalone="no"?>
<!DOCTYPE svg PUBLIC "-//W3C//DTD SVG 1.1//EN"
 "http://www.w3.org/Graphics/SVG/1.1/DTD/svg11.dtd">
<!-- Generated by graphviz version 2.47.0 (20210316.0004)
 -->
<!-- Title: dependencies Pages: 1 -->
<svg width="588pt" height="287pt"
 viewBox="0.00 0.00 588.00 287.00" xmlns="http://www.w3.org/2000/svg" xmlns:xlink="http://www.w3.org/1999/xlink">
<g id="graph0" class="graph" transform="scale(1 1) rotate(0) translate(4 283)">
<title>dependencies</title>
<polygon fill="white" stroke="transparent" points="-4,4 -4,-283 584,-283 584,4 -4,4"/>
<text text-anchor="start" x="269.01" y="-42.4" font-family="Times-12" font-weight="bold" font-size="14.00">Legend</text>
<polygon fill="#ffffb3" stroke="transparent" points="56,-10 56,-30 76,-30 76,-10 56,-10"/>
<text text-anchor="start" x="79.63" y="-15.4" font-family="Times-12" font-size="14.00"> &#160;Declarations</text>
<polygon fill="#8dd3c7" stroke="transparent" points="169,-10 169,-30 189,-30 189,-10 169,-10"/>
<text text-anchor="start" x="192.73" y="-15.4" font-family="Times-12" font-size="14.00"> &#160;Module</text>
<polygon fill="#80b1d3" stroke="transparent" points="255,-10 255,-30 275,-30 275,-10 255,-10"/>
<text text-anchor="start" x="278.78" y="-15.4" font-family="Times-12" font-size="14.00"> &#160;Bootstrap</text>
<polygon fill="#fdb462" stroke="transparent" points="352,-10 352,-30 372,-30 372,-10 352,-10"/>
<text text-anchor="start" x="375.67" y="-15.4" font-family="Times-12" font-size="14.00"> &#160;Providers</text>
<polygon fill="#fb8072" stroke="transparent" points="448,-10 448,-30 468,-30 468,-10 448,-10"/>
<text text-anchor="start" x="471.73" y="-15.4" font-family="Times-12" font-size="14.00"> &#160;Exports</text>
<g id="clust1" class="cluster">
<title>cluster_AppModule</title>
<polygon fill="none" stroke="black" stroke-dasharray="1,5" points="8,-146 8,-271 420,-271 420,-146 8,-146"/>
</g>
<g id="clust3" class="cluster">
<title>cluster_AppModule_imports</title>
<polygon fill="none" stroke="black" points="154,-154 154,-206 412,-206 412,-154 154,-154"/>
</g>
<g id="clust6" class="cluster">
<title>cluster_AppModule_providers</title>
<polygon fill="none" stroke="black" points="16,-154 16,-206 146,-206 146,-154 16,-154"/>
</g>
<g id="clust7" class="cluster">
<title>cluster_PrescriptionsModule</title>
<polygon fill="none" stroke="black" stroke-dasharray="1,5" points="60,-70 60,-138 272,-138 272,-70 60,-70"/>
</g>
<g id="clust12" class="cluster">
<title>cluster_PrescriptionsModule_providers</title>
<polygon fill="none" stroke="black" points="68,-78 68,-130 264,-130 264,-78 68,-78"/>
</g>
<g id="clust13" class="cluster">
<title>cluster_UsersModule</title>
<polygon fill="none" stroke="black" stroke-dasharray="1,5" points="280,-70 280,-138 572,-138 572,-70 280,-70"/>
</g>
<g id="clust18" class="cluster">
<title>cluster_UsersModule_providers</title>
<polygon fill="none" stroke="black" points="288,-78 288,-130 564,-130 564,-78 288,-78"/>
</g>
<!-- PrescriptionsModule -->
<g id="node1" class="node">
<title>PrescriptionsModule</title>
<polygon fill="#8dd3c7" stroke="black" points="294.14,-198 291.14,-202 270.14,-202 267.14,-198 161.86,-198 161.86,-162 294.14,-162 294.14,-198"/>
<text text-anchor="middle" x="228" y="-175.8" font-family="Times,serif" font-size="14.00">PrescriptionsModule</text>
</g>
<!-- AppModule -->
<g id="node3" class="node">
<title>AppModule</title>
<polygon fill="#8dd3c7" stroke="black" points="269.66,-263 266.66,-267 245.66,-267 242.66,-263 186.34,-263 186.34,-227 269.66,-227 269.66,-263"/>
<text text-anchor="middle" x="228" y="-240.8" font-family="Times,serif" font-size="14.00">AppModule</text>
</g>
<!-- PrescriptionsModule&#45;&gt;AppModule -->
<g id="edge1" class="edge">
<title>PrescriptionsModule&#45;&gt;AppModule</title>
<path fill="none" stroke="black" d="M228,-198.11C228,-198.11 228,-216.99 228,-216.99"/>
<polygon fill="black" stroke="black" points="224.5,-216.99 228,-226.99 231.5,-216.99 224.5,-216.99"/>
</g>
<!-- UsersModule -->
<g id="node2" class="node">
<title>UsersModule</title>
<polygon fill="#8dd3c7" stroke="black" points="403.92,-198 400.92,-202 379.92,-202 376.92,-198 312.08,-198 312.08,-162 403.92,-162 403.92,-198"/>
<text text-anchor="middle" x="358" y="-175.8" font-family="Times,serif" font-size="14.00">UsersModule</text>
</g>
<!-- UsersModule&#45;&gt;AppModule -->
<g id="edge2" class="edge">
<title>UsersModule&#45;&gt;AppModule</title>
<path fill="none" stroke="black" d="M358,-198.11C358,-217.34 358,-245 358,-245 358,-245 279.85,-245 279.85,-245"/>
<polygon fill="black" stroke="black" points="279.85,-241.5 269.85,-245 279.85,-248.5 279.85,-241.5"/>
</g>
<!-- AppService -->
<g id="node4" class="node">
<title>AppService</title>
<ellipse fill="#fdb462" stroke="black" cx="81" cy="-180" rx="56.74" ry="18"/>
<text text-anchor="middle" x="81" y="-175.8" font-family="Times,serif" font-size="14.00">AppService</text>
</g>
<!-- AppService&#45;&gt;AppModule -->
<g id="edge3" class="edge">
<title>AppService&#45;&gt;AppModule</title>
<path fill="none" stroke="black" d="M81,-198.11C81,-217.34 81,-245 81,-245 81,-245 176.27,-245 176.27,-245"/>
<polygon fill="black" stroke="black" points="176.27,-248.5 186.27,-245 176.27,-241.5 176.27,-248.5"/>
</g>
<!-- PrescriptionsService -->
<g id="node5" class="node">
<title>PrescriptionsService</title>
<ellipse fill="#fdb462" stroke="black" cx="166" cy="-104" rx="90.32" ry="18"/>
<text text-anchor="middle" x="166" y="-99.8" font-family="Times,serif" font-size="14.00">PrescriptionsService</text>
</g>
<!-- PrescriptionsService&#45;&gt;PrescriptionsModule -->
<g id="edge4" class="edge">
<title>PrescriptionsService&#45;&gt;PrescriptionsModule</title>
<path fill="none" stroke="black" d="M209.04,-120.12C209.04,-120.12 209.04,-151.77 209.04,-151.77"/>
<polygon fill="black" stroke="black" points="205.54,-151.77 209.04,-161.77 212.54,-151.77 205.54,-151.77"/>
</g>
<!-- AuthService -->
<g id="node6" class="node">
<title>AuthService</title>
<ellipse fill="#fdb462" stroke="black" cx="497" cy="-104" rx="59.11" ry="18"/>
<text text-anchor="middle" x="497" y="-99.8" font-family="Times,serif" font-size="14.00">AuthService</text>
</g>
<!-- AuthService&#45;&gt;UsersModule -->
<g id="edge5" class="edge">
<title>AuthService&#45;&gt;UsersModule</title>
<path fill="none" stroke="black" d="M497,-122.01C497,-144.49 497,-180 497,-180 497,-180 413.9,-180 413.9,-180"/>
<polygon fill="black" stroke="black" points="413.9,-176.5 403.9,-180 413.9,-183.5 413.9,-176.5"/>
</g>
<!-- UsersService -->
<g id="node7" class="node">
<title>UsersService</title>
<ellipse fill="#fdb462" stroke="black" cx="358" cy="-104" rx="61.95" ry="18"/>
<text text-anchor="middle" x="358" y="-99.8" font-family="Times,serif" font-size="14.00">UsersService</text>
</g>
<!-- UsersService&#45;&gt;UsersModule -->
<g id="edge6" class="edge">
<title>UsersService&#45;&gt;UsersModule</title>
<path fill="none" stroke="black" d="M358,-122.01C358,-122.01 358,-151.85 358,-151.85"/>
<polygon fill="black" stroke="black" points="354.5,-151.85 358,-161.85 361.5,-151.85 354.5,-151.85"/>
</g>
</g>
</svg>
